# xmcd
# 
# Track frame offsets:
#     150
#     26284
#     45941
#     71048
#     93652
#     110409
#     133025
#     146059
# 
# Disc length: 2357
# 
# Revision: 0
# Processed by: cddbd v1.5.2PL0 Copyright (c) Steve Scherf et al.
# Submitted via: fre:ac v1.0.27
# 
DISCID=6b093308
DTITLE=Faun - Midgard [ Tour Edition - CD2 ]
DYEAR=2017
DGENRE=Pop-Folk
TTITLE0=Alba II - Live and Acoustic
TTITLE1=Sonnenreigen (Lughnasad) - Live and Acoustic
TTITLE2=Adam Lay Ybounden - Live and Acoustic
TTITLE3=Gold and Seide - Live and Acoustic
TTITLE4=Alswinn - Live and Acoustic
TTITLE5=Rabenballade - Live and Acoustic
TTITLE6=Subrali - Live and Acoustic
TTITLE7=Odin - Lava Remix
EXTD=
EXTT0=
EXTT1=
EXTT2=
EXTT3=
EXTT4=
EXTT5=
EXTT6=
EXTT7=
PLAYORDER=
